# xmcd CD database file
#
# Track frame offsets:
#	183
#	16058
#	41643
#	54950
#	81450
#	96963
#	119758
#	139235
#	168430
#	192515
#	219580
#	240018
#	258305
#	271025
#
# Disc length: 3787 seconds
#
# Revision: 0
# Processed by: cddbd v1.5.1PL2 Copyright (c) Steve Scherf et al.
# Submitted via: CDex 1.51
#
DISCID=bf0ec90e
DTITLE=Louis Armstrong - The Great Concert of Louis Armstrong
DYEAR=1989
DGENRE=Blues
TTITLE0=Rose Room
TTITLE1=Back'o Town Bluse
TTITLE2=C'est Si Bon
TTITLE3=Way Down Yonder In New-Orleans
TTITLE4=Stardust
TTITLE5=Rockin' Chair
TTITLE6=Where Did You Stay Last Night
TTITLE7=Baby It's Cold Outside
TTITLE8=C Jam Blues
TTITLE9=Stomping At The Savoy
TTITLE10=I Used To Love You
TTITLE11=La Vie En Rose
TTITLE12=Royal Garden Blues
TTITLE13=Ain't Misbehavin'
EXTD=YEAR: 1989
EXTT0=
EXTT1=
EXTT2=
EXTT3=
EXTT4=
EXTT5=
EXTT6=
EXTT7=
EXTT8=
EXTT9=
EXTT10=
EXTT11=
EXTT12=
EXTT13=
PLAYORDER=
